<svg xmlns="http://www.w3.org/2000/svg" xmlns:xlink="http://www.w3.org/1999/xlink" viewBox="0 0 800 612.62"><defs><style>.cls-1{fill:#fff;}.cls-2{fill:#1aa7c5;}.cls-3{fill:url(#Dégradé_sans_nom_12);}.cls-4{fill:#1ea2be;}</style><linearGradient id="Dégradé_sans_nom_12" x1="616.32" y1="630.23" x2="620.9" y2="122.86" gradientUnits="userSpaceOnUse"><stop offset="0" stop-color="#f2f2f2" stop-opacity="0.6"/><stop offset="1" stop-color="#386caf" stop-opacity="0"/></linearGradient></defs><g id="Calque_2" data-name="Calque 2"><g id="Calque_1-2" data-name="Calque 1"><path class="cls-1" d="M324.24,401.75C389.53,385.6,432.86,341,432.86,266c0-93.21-61-130.43-147.57-135.52v-.62H0v50H112.74V612.62h62.55V429.22h72.54a23.45,23.45,0,0,1,19.82,10.9l109.28,172.5h69.91Zm-69.47-43H175.29V179.91h79.48c75.07,0,116.28,22.81,116.28,86.1C371.05,327.83,329.84,358.73,254.77,358.73Z"/><path class="cls-1" d="M796.81,425.7c0,118.48-82.41,186.92-176.61,186.92S443.58,544.18,443.58,425.7c0-89.09,45.48-149.77,107.47-175.09v61.7c-28.27,23.75-44.92,63.61-44.92,113.39,0,30.13,6.21,56.54,17.47,77.89a112.32,112.32,0,0,0,27.45,34.33l.09.07c18.52,15.34,42,23.85,69.06,23.85s50.62-8.54,69.15-23.92a112.32,112.32,0,0,0,27.45-34.33c11.26-21.35,17.46-47.76,17.46-77.89,0-49.78-16.65-89.64-44.91-113.39v-61.7C751.34,275.93,796.81,336.6,796.81,425.7Z"/><path class="cls-2" d="M706.67,500.91a26.21,26.21,0,0,0,10.13,2.68,112.32,112.32,0,0,1-27.45,34.33c-18.53,15.38-42.05,23.92-69.15,23.92s-50.54-8.51-69.06-23.85l-.09-.07a112.32,112.32,0,0,1-27.45-34.33,26.22,26.22,0,0,0,10.22-2.68c14.26-7.09,16.79-25.39,17.23-31.25V202.93H442.47A2.07,2.07,0,0,1,441,199.4L618.74,21.67a2.08,2.08,0,0,1,2.92,0L799.39,199.4a2.07,2.07,0,0,1-1.46,3.53H689.35v265C689.37,469.23,690.07,492.65,706.67,500.91Z"/><path class="cls-3" d="M706.67,500.91a26.21,26.21,0,0,0,10.13,2.68,112.32,112.32,0,0,1-27.45,34.33c-18.53,15.38-42.05,23.92-69.15,23.92s-50.54-8.51-69.06-23.85l-.09-.07a112.32,112.32,0,0,1-27.45-34.33,26.22,26.22,0,0,0,10.22-2.68c14.26-7.09,16.79-25.39,17.23-31.25V202.93H442.47A2.07,2.07,0,0,1,441,199.4L618.74,21.67a2.08,2.08,0,0,1,2.92,0L799.39,199.4a2.07,2.07,0,0,1-1.46,3.53H689.35v265C689.37,469.23,690.07,492.65,706.67,500.91Z"/><path class="cls-1" d="M555.12,50.68A180.15,180.15,0,0,0,300.36,54.9l-.35.36,33,31.93.35-.36C384.83,33.62,470,32.21,523.2,83.68l.36.35,31.92-33Z"/><path class="cls-4" d="M508.28,99.1a112.8,112.8,0,0,0-159.5,2.65l-.34.36,33,31.93.35-.36a66.85,66.85,0,0,1,94.56-1.57l.36.34,31.93-33Z"/><path class="cls-1" d="M461.43,147.53a45.47,45.47,0,0,0-64.22,1.07l-.35.36,33,31.92,31.92-33Z"/></g></g></svg>